<?xml version="1.0" standalone="no"?>
<!DOCTYPE svg PUBLIC "-//W3C//DTD SVG 20010904//EN"
 "http://www.w3.org/TR/2001/REC-SVG-20010904/DTD/svg10.dtd">
<svg version="1.0" xmlns="http://www.w3.org/2000/svg"
 width="700.000000pt" height="700.000000pt" viewBox="0 0 700.000000 700.000000"
 preserveAspectRatio="xMidYMid meet">
<metadata>
Created by potrace 1.14, written by Peter Selinger 2001-2017
</metadata>
<g transform="translate(0.000000,700.000000) scale(0.100000,-0.100000)"
fill="#000000" stroke="none">
<path d="M3151 6984 c-164 -44 -291 -171 -336 -337 -12 -44 -14 -548 -14
-3349 l-1 -3298 700 0 700 0 0 3284 c0 2191 -3 3301 -10 3337 -24 128 -118
259 -228 317 -105 56 -138 60 -462 60 -224 0 -308 -3 -349 -14z"/>
<path d="M1085 3959 c-136 -25 -271 -123 -329 -238 -59 -115 -56 -6 -56 -1943
l0 -1778 700 0 700 0 -1 1787 c0 1697 -1 1791 -18 1845 -51 159 -194 293 -346
324 -51 10 -597 13 -650 3z"/>
<path d="M5259 2553 c-124 -31 -244 -123 -301 -229 -59 -109 -58 -81 -58
-1251 l0 -1073 700 0 700 0 0 1078 c0 703 -4 1093 -11 1122 -18 80 -68 169
-128 228 -59 59 -104 85 -216 128 -11 4 -158 8 -326 9 -230 1 -320 -2 -360
-12z"/>
</g>
</svg>
